<?xml version="1.0" encoding="UTF-8"?>
<svg xmlns="http://www.w3.org/2000/svg" width="64" height="80" viewBox="0 0 64 80">
  <rect width="64" height="80" fill="#fbf8f1"/>
  <g fill="none" stroke="#111111" stroke-linecap="round" stroke-linejoin="round">
    <path d="M28.4 4.6 Q27.8 6.6 27.8 9 L27.6 30.5 Q27.5 31.4 27.4 32 L27.4 73.4 Q27.5 75.4 28.5 76.8" stroke-width="1.5"/>
    <path d="M35.6 4.8 Q36.4 6.8 36.4 9 L36.6 30.5 Q36.6 31.4 36.7 32 L36.7 73.5 Q36.6 75.5 35.6 76.9" stroke-width="1.5"/>
    <path d="M28.4 4.7 Q32 3.5 35.6 4.8" stroke-width="1.5"/>
    <path d="M28.5 76.9 Q32 78.2 35.6 76.9" stroke-width="1.5"/>
    <path d="M5 24.4 Q7.2 23.6 9.6 23.6 L54.4 23.4 Q57 23.4 59 24.2" stroke-width="1.5"/>
    <path d="M5 32.4 Q7.2 33.4 9.6 33.4 L54.4 33.6 Q57 33.6 59 32.6" stroke-width="1.5"/>
    <path d="M5 24.5 Q3.6 28.4 5 32.4" stroke-width="1.5"/>
    <path d="M59 24.3 Q60.4 28.4 59 32.5" stroke-width="1.5"/>
    <path d="M9 28.5 Q22 29 36 28.7 Q48 28.4 56 28.9" stroke-width="0.6" opacity="0.5"/>
    <path d="M32 12 Q32.6 24 32 35" stroke-width="0.6" opacity="0.5"/>
    <path d="M32.6 40 Q33 54 32.4 68" stroke-width="0.6" opacity="0.5"/>
  </g>
</svg>
